<svg xmlns="http://www.w3.org/2000/svg" viewBox="0 0 718.64 69.83"><defs><style>.cls-1{fill:#303030;}</style></defs><g id="Capa_2" data-name="Capa 2"><g id="Capa_1-2" data-name="Capa 1"><path class="cls-1" d="M23.3,39.65c2.34,9.8,3.51,14.7,5.86,24.51l-4.79,1.15L21.82,54.82c-5.38,1.3-8.06,2-13.42,3.33C9.46,62.33,10,64.43,11,68.61L6.27,69.83,0,45.43l4.86-1.24c1,4,1.53,6.05,2.56,10.08,5.37-1.36,8.07-2,13.46-3.34-1-4-1.48-6.06-2.46-10.11Z"/><path class="cls-1" d="M38.81,49c-1.67-7.26,3.11-14,11.28-15.81s15.32,2.32,16.85,9.65S63.66,56.7,55.64,58.46,40.48,56.22,38.81,49Zm23.24-5.13C61,38.79,56.26,36,51,37.15s-8.41,5.67-7.28,10.69,5.84,7.76,11.07,6.61S63.11,48.86,62.05,43.82Z"/><path class="cls-1" d="M115,20.84c-1.81,10.54-2.69,15.81-4.37,26.34l-5.13.93c-3.91-6.87-5.88-10.3-9.85-17.15-1.28,7.83-1.91,11.74-3.12,19.57l-5.16,1c-5.38-9.22-8.09-13.81-13.59-23l5.1-1C83,34.51,85,38,89.06,45,90.31,37,91,33,92.27,24.92l4.54-.84c4.08,7.08,6.1,10.62,10.11,17.73,1.31-8.06,2-12.09,3.36-20.16Z"/><path class="cls-1" d="M151.19,19.1c-3.52.51-5.27.77-8.79,1.31-.24-1.57-.36-2.35-.59-3.92,9-1.37,13.53-2,22.57-3.25.22,1.57.32,2.35.54,3.92-3.52.48-5.28.73-8.8,1.23l3,21-4.86.7C153,31.71,152.42,27.5,151.19,19.1Z"/><path class="cls-1" d="M199.43,8.9c1.11,10,1.67,15,2.79,25l-4.87.55c-.5-4.29-.74-6.44-1.24-10.73-5.46.63-8.19,1-13.65,1.64.53,4.29.8,6.43,1.34,10.72l-4.87.61-3.2-25,5-.63c.51,4.13.77,6.19,1.29,10.32,5.47-.68,8.21-1,13.69-1.64-.48-4.13-.71-6.2-1.19-10.33Z"/><path class="cls-1" d="M236.12,26.63c.13,1.57.2,2.35.34,3.91-7.88.69-11.82,1.06-19.7,1.85-1-10-1.52-15-2.53-25.07,7.8-.78,11.7-1.15,19.51-1.83.14,1.56.2,2.34.34,3.91-5.8.5-8.71.77-14.51,1.34.26,2.61.38,3.91.64,6.52,5.12-.5,7.68-.74,12.81-1.19.14,1.53.2,2.3.34,3.83-5.11.45-7.67.69-12.78,1.19.27,2.77.41,4.15.68,6.92C227.2,27.43,230.17,27.15,236.12,26.63Z"/><path class="cls-1" d="M304.81,1c-3.17,10.2-4.73,15.31-7.77,25.54l-5.19.23c-3-7.32-4.46-11-7.48-18.29-2.3,7.59-3.42,11.38-5.65,19l-5.22.31C269.4,18,267.32,13,263.1,3.22l5.16-.33c3.15,7.47,4.7,11.22,7.78,18.71,2.28-7.81,3.44-11.71,5.8-19.51l4.59-.24c3.1,7.56,4.64,11.34,7.66,18.91,2.35-7.82,3.55-11.72,6-19.53Z"/><path class="cls-1" d="M316.53.64l5-.14c.26,10.08.4,15.12.66,25.19l-4.89.14Z"/><path class="cls-1" d="M360.23,0c0,10.08,0,15.12,0,25.2h-4c-5.83-6.81-8.78-10.2-14.75-16.95.09,6.82.13,10.24.22,17.06l-4.86.07L336.41.19l4.1-.06c6,6.74,9,10.13,14.83,16.94l0-17.06Z"/><path class="cls-1" d="M394.69,21.71l-.1,3.92c-7.9-.2-11.86-.27-19.76-.35.11-10.08.16-15.12.27-25.2,7.83.09,11.75.16,19.57.35,0,1.56-.05,2.35-.09,3.92-5.82-.14-8.73-.2-14.55-.28l-.1,6.55c5.14.07,7.71.12,12.85.24,0,1.54,0,2.31-.08,3.85-5.13-.12-7.7-.17-12.82-.24l-.1,7C385.74,21.5,388.72,21.56,394.69,21.71Z"/><path class="cls-1" d="M405.44,23.27l1.82-3.57a15.26,15.26,0,0,0,8.62,3.08c4.11.17,5.9-1.16,6-3,.24-5.43-15.66-2.47-15.35-11.82.13-4.07,3.69-7.42,11-7.13a17.57,17.57,0,0,1,8.82,2.62c-.69,1.42-1,2.13-1.73,3.56a15.33,15.33,0,0,0-7.28-2.29c-4.13-.17-5.86,1.29-5.93,3.19-.19,5.36,15.72,2.53,15.29,11.77-.19,4-3.78,7.3-11,7C411.62,26.51,407.57,25.14,405.44,23.27Z"/><path class="cls-1" d="M474.17,24c-5.28-.43-7.92-.63-13.2-1-1.21,2.26-1.81,3.38-3,5.64l-5-.34c5.39-9.75,8.13-14.61,13.7-24.3l4.89.37c4.05,10.42,6,15.64,9.91,26.09l-5.1-.43C475.47,27.59,475,26.39,474.17,24Zm-1.33-3.79c-1.65-4.56-2.48-6.83-4.16-11.38-2.33,4.25-3.49,6.37-5.79,10.62C466.87,19.72,468.86,19.87,472.84,20.19Z"/><path class="cls-1" d="M509.45,33.12c-1.83-3.16-2.75-4.74-4.61-7.89-.34,0-.68,0-1-.07l-5.95-.59c-.29,2.92-.43,4.38-.71,7.3l-4.88-.46,2.35-25.09c4.4.41,6.6.63,11,1.07,7,.72,11,4.57,10.39,10.11a8.11,8.11,0,0,1-6.48,7.31c2.08,3.55,3.11,5.32,5.16,8.88ZM505,11.31l-5.79-.57c-.39,4-.58,6-1,10l5.75.57c4.3.44,6.73-1.18,7.06-4.33S509.34,11.75,505,11.31Z"/><path class="cls-1" d="M547.34,33.7c-.21,1.56-.31,2.33-.52,3.89-7.85-1-11.78-1.54-19.64-2.47,1.19-10,1.78-15,3-25,7.79.92,11.68,1.41,19.46,2.44-.21,1.56-.31,2.33-.52,3.89-5.78-.77-8.67-1.13-14.46-1.84l-.8,6.5c5.11.63,7.67.95,12.78,1.62l-.5,3.82c-5.1-.67-7.65-1-12.75-1.62-.33,2.76-.5,4.14-.84,6.9C538.45,32.53,541.41,32.91,547.34,33.7Z"/><path class="cls-1" d="M601.45,45.94l2.8-16.47c-4.4,4.85-6.59,7.28-10.93,12.17l-2.17-.36c-2.55-5.94-3.84-8.9-6.45-14.83-1,6.51-1.55,9.77-2.59,16.28L577.49,42c1.54-10,2.32-14.94,3.86-24.9l4.06.63c3.18,7.27,4.74,10.91,7.82,18.19,5.18-5.91,7.8-8.86,13.08-14.73l4.05.71L606,46.74C604.2,46.41,603.28,46.25,601.45,45.94Z"/><path class="cls-1" d="M638.49,46.9c-5.22-1-7.83-1.55-13-2.54l-3.65,5.24-5-.92c6.51-9,9.81-13.56,16.48-22.54l4.83.94C641,37.91,642.33,43.33,645,54.16l-5-1ZM637.6,43c-1.12-4.72-1.68-7.07-2.83-11.78-2.81,3.94-4.21,5.91-7,9.86C631.71,41.81,633.67,42.2,637.6,43Z"/><path class="cls-1" d="M660.94,31.75c4.61,1,6.92,1.49,11.52,2.51C681,36.15,685.68,42.43,684,49.79s-8.57,10.93-17,9.07c-4.52-1-6.79-1.5-11.32-2.46Zm6.71,23.19c5.78,1.28,10.28-1.19,11.44-6.28s-1.86-9.29-7.71-10.59L665,36.68c-1.46,6.75-2.19,10.13-3.66,16.88Z"/><path class="cls-1" d="M713.88,66l-1,3.8c-7.71-2-11.58-2.94-19.31-4.81l5.92-24.5c7.66,1.86,11.49,2.81,19.13,4.77l-1,3.8c-5.68-1.45-8.53-2.17-14.22-3.57l-1.57,6.37c5,1.23,7.55,1.86,12.57,3.14-.38,1.49-.57,2.24-1,3.73-5-1.28-7.51-1.9-12.52-3.13-.67,2.69-1,4-1.66,6.74C705.14,63.81,708.06,64.54,713.88,66Z"/></g></g></svg>