<svg xmlns="http://www.w3.org/2000/svg" viewBox="0 0 451.63 55.48"><defs><style>.cls-1{fill:#303030;}</style></defs><g id="Capa_2" data-name="Capa 2"><g id="Capa_1-2" data-name="Capa 1"><path class="cls-1" d="M.48,43.25C-1.66,34.89,3.53,27,12.75,24.77s17.41,2.52,19.26,11S28.62,51.83,19.69,54,2.63,51.6.48,43.25Zm26-6.28c-1.31-5.81-6.7-9-12.67-7.58S4.5,36.08,6,41.86s6.81,8.85,12.64,7.47S27.83,42.78,26.52,37Z"/><path class="cls-1" d="M46.33,34.65C45,28.2,44.38,25,43.07,18.52c2.22-.45,3.33-.67,5.56-1.1,1.25,6.37,1.87,9.56,3.12,15.94,1.16,5.89,4.36,7.88,9.07,7s6.92-3.89,5.87-9.8c-1.14-6.39-1.72-9.59-2.86-16l5.49-1,2.8,16.21C73.56,38.2,69.56,43.56,61.65,45S48,43,46.33,34.65Z"/><path class="cls-1" d="M109.26,37c-2.83-3.07-4.26-4.6-7.14-7.65a10.68,10.68,0,0,1-1.13.2c-2.66.37-4,.56-6.65,1,.5,3.37.74,5,1.24,8.41-2.17.32-3.25.48-5.42.82Q88,25.35,85.74,10.93c5-.76,7.43-1.12,12.39-1.82,7.93-1.1,13.33,2.19,14.14,8.6a9.4,9.4,0,0,1-5.15,9.94c3.22,3.44,4.82,5.17,8,8.64ZM98.51,13.69c-2.61.36-3.91.55-6.51.93l1.69,11.5,6.43-.92c4.82-.67,7-3.14,6.56-6.78S103.39,13,98.51,13.69Z"/><path class="cls-1" d="M172.42,12.19c.38,6.41-4.22,10.62-12,11.18-2.67.19-4,.3-6.69.51.27,3.36.41,5,.67,8.39l-5.44.45q-1.26-14.52-2.5-29c5-.43,7.48-.63,12.46-1C166.88,2.1,172.05,5.75,172.42,12.19Zm-5.61.35c-.23-3.66-2.91-5.63-7.82-5.27l-6.55.5c.37,4.62.55,6.92.92,11.54,2.59-.21,3.88-.3,6.47-.49C164.67,18.47,167.05,16.19,166.81,12.54Z"/><path class="cls-1" d="M206.6,29.64c-2.47-3.36-3.72-5-6.24-8.39-.38.05-.76.06-1.15.08-2.67.07-4,.12-6.69.21.12,3.4.18,5.1.31,8.5l-5.46.21q-.63-14.57-1.24-29.13c5-.22,7.49-.31,12.49-.45,8-.23,13,3.63,13.08,10.09a9.39,9.39,0,0,1-6.19,9.32c2.82,3.77,4.21,5.67,7,9.46C210.13,29.57,209,29.59,206.6,29.64ZM198.49,5.26l-6.56.21c.17,4.65.26,7,.42,11.62,2.59-.09,3.89-.14,6.48-.21,4.86-.14,7.33-2.35,7.25-6S203.41,5.11,198.49,5.26Z"/><path class="cls-1" d="M224.36,14.87c0-8.63,6.93-15,16.35-14.87s16.14,6.76,15.84,15.41S249.31,30.15,240.2,30,224.37,23.49,224.36,14.87Zm26.6.37c.17-6-4.24-10.39-10.33-10.49S230,8.92,230,14.88a10.51,10.51,0,0,0,21,.36Z"/><path class="cls-1" d="M271.71,1.47c5.31.27,8,.42,13.26.77,9.83.64,16.06,7,15.33,15.76s-7.71,14-17.23,13.34c-5.13-.33-7.7-.48-12.84-.74Q271,16,271.71,1.47Zm11.41,25.28c6.57.43,11.13-3.17,11.6-9.2S291.14,7.23,284.41,6.8c-2.93-.19-4.39-.28-7.32-.45-.46,8-.69,12-1.14,20C278.82,26.48,280.25,26.56,283.12,26.75Z"/><path class="cls-1" d="M314.25,21.16c.65-6.55,1-9.83,1.62-16.38l5.62.58c-.68,6.46-1,9.69-1.71,16.16-.63,6,1.84,8.81,6.58,9.35s7.75-1.68,8.48-7.63c.79-6.46,1.19-9.68,2-16.13l5.52.69-2.1,16.32c-1.09,8.43-6.48,12.38-14.46,11.47S313.41,29.62,314.25,21.16Z"/><path class="cls-1" d="M354.56,24.19c1.24-8.62,9-13.87,18.28-12.36,4.9.8,8.82,3.21,11.05,6.82-1.67,1-2.5,1.56-4.15,2.62a10.68,10.68,0,0,0-7.41-4.71c-6.2-1-11.33,2.52-12.23,8.45S363,35.8,369,36.79a10.54,10.54,0,0,0,8.4-2.1l2.94,3.9c-3.27,2.64-7.62,3.62-12.4,2.84C359.07,40,353.31,32.81,354.56,24.19Z"/><path class="cls-1" d="M403.43,22.44c-3.95-.78-5.93-1.16-9.88-1.91.34-1.8.5-2.7.84-4.5,10.18,1.91,15.26,2.94,25.39,5.13-.39,1.8-.59,2.69-1,4.48-3.94-.85-5.91-1.27-9.86-2.08C407,33.19,406,38,404,47.64l-5.38-1.09Z"/><path class="cls-1" d="M423.85,48.79c1.12-1.47,1.68-2.21,2.81-3.67a17,17,0,0,0,8.83,5.38c4.5,1.09,6.79,0,7.32-2.1,1.52-6.1-16.78-6.25-14.36-16.81,1.05-4.59,5.78-7.63,13.94-5.65a19.68,19.68,0,0,1,9.24,5l-2.76,3.64a17.12,17.12,0,0,0-7.59-4.25c-4.56-1.11-6.83.16-7.34,2.31-1.42,6,16.92,6.4,14.26,16.77-1.16,4.52-5.88,7.41-13.77,5.5C430,53.79,425.79,51.37,423.85,48.79Z"/></g></g></svg>