<svg xmlns="http://www.w3.org/2000/svg" viewBox="0 0 260.26 40.33"><defs><style>.cls-1{fill:#303030;}</style></defs><g id="Capa_2" data-name="Capa 2"><g id="Capa_1-2" data-name="Capa 1"><path class="cls-1" d="M.26,26.51c-1.56-8.18,3.94-15.52,13-17s16.61,3.59,17.81,11.87S26.7,36.58,18,38,1.82,34.68.26,26.51Zm25.43-4.37C24.82,16.46,19.84,13,14,14S4.57,19.85,5.6,25.51s6,9,11.67,8A9.78,9.78,0,0,0,25.69,22.14Z"/><path class="cls-1" d="M44.88,21.31c-.79-6.31-1.18-9.46-2-15.77l5.44-.66c.73,6.24,1.09,9.35,1.82,15.58.68,5.76,3.6,7.91,8.17,7.43s6.94-3.21,6.38-9c-.59-6.25-.89-9.37-1.49-15.62,2.15-.21,3.22-.31,5.37-.49.56,6.33.84,9.49,1.39,15.82.72,8.18-3.52,13-11.2,13.82S45.89,29.45,44.88,21.31Z"/><path class="cls-1" d="M105,28.71c-2.44-3.21-3.67-4.8-6.17-8a8,8,0,0,1-1.1.09l-6.46.35c.19,3.27.29,4.91.48,8.19-2.1.12-3.15.18-5.25.32q-.92-14.06-1.84-28.1c4.84-.31,7.26-.45,12.11-.68,7.74-.38,12.65,3.28,12.84,9.51a9.09,9.09,0,0,1-5.83,9.1c2.78,3.59,4.16,5.4,6.87,9C108.37,28.59,107.24,28.62,105,28.71ZM96.71,5.32c-2.54.12-3.81.19-6.35.33L91,16.86c2.5-.15,3.75-.21,6.25-.33,4.69-.23,7-2.4,6.9-5.94S101.48,5.08,96.71,5.32Z"/><path class="cls-1" d="M141,25.3l1.9-4a16.27,16.27,0,0,0,9.34,3.32c4.43.14,6.36-1.35,6.44-3.43.24-6.07-17-2.56-16.81-13,.07-4.55,3.92-8.39,12-8.13a18.84,18.84,0,0,1,9.7,2.87c-.77,1.59-1.14,2.39-1.9,4a16.25,16.25,0,0,0-8-2.52c-4.52-.14-6.4,1.52-6.44,3.65-.14,6,17.16,2.7,16.68,13-.22,4.5-4.07,8.15-11.83,7.91C147.69,28.8,143.32,27.35,141,25.3Z"/><path class="cls-1" d="M175.7,15.55c.53-8.31,7.66-14,16.77-13.26s15.16,7.62,14.25,15.94-8,13.67-16.74,12.91S175.17,23.86,175.7,15.55Zm25.64,2.12c.58-5.73-3.38-10.3-9.27-10.81s-10.56,3.32-11,9.06a10.16,10.16,0,0,0,20.24,1.75Z"/><path class="cls-1" d="M222.4,5.92c2.17.28,3.26.42,5.43.72q-1.91,14-3.82,27.9c-2.08-.29-3.13-.43-5.22-.7Q220.59,19.88,222.4,5.92Z"/><path class="cls-1" d="M244.07,9.05l5.42.89c-1.58,9.37-2.37,14.05-3.94,23.41,5.89,1,8.83,1.52,14.71,2.64-.33,1.74-.5,2.6-.83,4.34-7.91-1.51-11.88-2.2-19.82-3.48Q241.84,23,244.07,9.05Z"/></g></g></svg>