<svg xmlns="http://www.w3.org/2000/svg" viewBox="0 0 719.13 69.83"><defs><style>.cls-1{fill:#303030;}</style></defs><g id="Capa_2" data-name="Capa 2"><g id="Capa_1-2" data-name="Capa 1"><path class="cls-1" d="M39.41,35.89c-1.14,10.6-1.67,15.89-2.68,26.48l-4.91,1.15c-4.18-6.67-6.29-10-10.53-16.65-.78,7.86-1.15,11.79-1.87,19.65l-4.93,1.23C8.75,58.79,5.85,54.33,0,45.43l4.87-1.25c4.39,6.8,6.57,10.2,10.9,17,.73-8.08,1.11-12.12,1.92-20.2L22,40c4.36,6.88,6.52,10.32,10.81,17.23.8-8.1,1.21-12.15,2.07-20.26Z"/><path class="cls-1" d="M73.11,28.66c2,9.88,3,14.82,5,24.7l-4.64,1L71.28,43.73c-5.21,1.07-7.81,1.62-13,2.74.91,4.22,1.36,6.33,2.27,10.56L55.9,58c-2.16-9.84-3.24-14.76-5.39-24.61l4.72-1c.87,4.07,1.31,6.11,2.19,10.18,5.22-1.13,7.83-1.68,13.06-2.75l-2.1-10.19Z"/><path class="cls-1" d="M110.11,43.29c.28,1.54.42,2.31.69,3.86-7.53,1.34-11.29,2-18.81,3.48L87.24,25.88c7.45-1.43,11.18-2.12,18.64-3.45.27,1.55.41,2.32.69,3.86-5.55,1-8.32,1.5-13.86,2.54.48,2.58.72,3.87,1.21,6.44,4.89-.92,7.34-1.37,12.24-2.25.27,1.52.41,2.28.68,3.79-4.89.88-7.33,1.33-12.21,2.25.52,2.73.77,4.09,1.29,6.82C101.59,44.82,104.43,44.3,110.11,43.29Z"/><path class="cls-1" d="M139.65,42.32l-6.31-6.47c-.32.09-.65.14-1,.2-2.29.36-3.43.55-5.71.93l1.2,7.24-4.67.78c-1.68-9.94-2.52-14.91-4.19-24.84,4.21-.71,6.31-1.06,10.53-1.74,6.73-1.09,11.41,1.63,12.26,7.14a8.09,8.09,0,0,1-4.18,8.7c2.84,2.91,4.25,4.37,7.07,7.28Zm-9.71-20-5.55.91c.66,4,1,5.95,1.64,9.91,2.2-.37,3.3-.55,5.51-.9,4.13-.67,6-2.85,5.48-6S134.1,21.69,129.94,22.36Z"/><path class="cls-1" d="M175.08,33.27c.21,1.56.31,2.34.51,3.89-7.57,1-11.36,1.51-18.92,2.6l-3.6-24.94c7.49-1.08,11.24-1.59,18.74-2.58.21,1.56.31,2.34.51,3.89-5.58.73-8.36,1.11-13.93,1.9.36,2.59.54,3.89.91,6.49,4.92-.7,7.38-1,12.31-1.68l.5,3.81c-4.91.65-7.37,1-12.27,1.68.38,2.75.58,4.13,1,6.88C166.51,34.4,169.37,34,175.08,33.27Z"/><path class="cls-1" d="M202.49,8.56c4.5-.49,6.76-.73,11.26-1.19C222.1,6.53,228.27,11,229,18.56s-4.46,13.05-12.67,13.88c-4.42.45-6.64.68-11.06,1.17C204.14,23.59,203.59,18.58,202.49,8.56Zm13.18,20c5.66-.58,9-4.32,8.51-9.52s-4.53-8.26-10.25-7.67l-6.24.64c.73,6.88,1.09,10.31,1.82,17.18Z"/><path class="cls-1" d="M239.48,17.64c-.63-7.42,4.8-13.42,12.8-14s14.26,4.49,14.74,12-5,13.3-12.81,13.88S240.1,25.07,239.48,17.64Zm22.76-1.73a9,9,0,0,0-18,1.34,9,9,0,0,0,18-1.34Z"/><path class="cls-1" d="M299,22.56c.07,1.57.1,2.36.17,3.92-7.62.33-11.42.52-19,.94-.56-10.06-.84-15.09-1.41-25.15,7.54-.43,11.32-.61,18.86-.94l.17,3.92c-5.61.24-8.42.38-14,.67.13,2.62.2,3.93.34,6.55,5-.26,7.43-.38,12.38-.6.07,1.54.1,2.3.17,3.84-4.94.22-7.41.34-12.35.6.15,2.78.22,4.16.37,6.94C290.34,23,293.22,22.81,299,22.56Z"/><path class="cls-1" d="M309.41,23.42c.6-1.48.91-2.22,1.51-3.69a14.44,14.44,0,0,0,8.5,2.51c4-.12,5.6-1.56,5.56-3.43-.13-5.43-15.23-1.42-15.56-10.77C309.28,4,312.48.39,319.57.19a16.55,16.55,0,0,1,8.66,2c-.58,1.47-.86,2.2-1.43,3.67a14.46,14.46,0,0,0-7.16-1.8c-4,.11-5.55,1.68-5.49,3.58.17,5.37,15.29,1.48,15.49,10.72.08,4-3.15,7.55-10.11,7.74C315.57,26.24,311.58,25.14,309.41,23.42Z"/><path class="cls-1" d="M359,0h4.8c0,10.07-.05,15.11-.08,25.19H359C359,15.12,359,10.08,359,0Z"/><path class="cls-1" d="M383.35,4.16c-3.42-.06-5.13-.08-8.55-.12,0-1.58,0-2.38,0-4,8.78.09,13.17.17,21.94.4l-.1,4c-3.42-.09-5.13-.13-8.55-.2-.16,8.5-.25,12.74-.42,21.24L383,25.39Z"/><path class="cls-1" d="M423,14c.33-7.51,6.48-12.69,14.41-12.27a13.18,13.18,0,0,1,10,4.79l-3.26,2.66a9.11,9.11,0,0,0-6.71-3.34C432,5.56,428,9,427.75,14.22s3.4,9,8.67,9.31a9,9,0,0,0,7-2.6L446.27,24a13.08,13.08,0,0,1-10.33,3.62C428.19,27.2,422.62,21.52,423,14Z"/><path class="cls-1" d="M456.31,15.87c.51-7.44,6.78-12.54,14.78-11.92S484.51,10.54,483.86,18,477,30.39,469.09,29.79,455.81,23.3,456.31,15.87Zm22.76,1.72a9,9,0,0,0-18-1.39,9,9,0,0,0,18,1.39Z"/><path class="cls-1" d="M518.24,34.08c.73-6.64,1.1-10,1.83-16.6-4,5.12-6,7.68-9.87,12.83l-2.1-.22c-2.77-5.77-4.17-8.65-7-14.39-.64,6.56-1,9.84-1.62,16.4L495,31.67l2.4-25.09,3.94.39c3.43,7.05,5.13,10.58,8.47,17.65,4.67-6.22,7-9.33,11.79-15.51l3.94.44c-1.15,10-1.72,15-2.86,25Z"/><path class="cls-1" d="M556.2,34.91l-.55,3.88c-7.56-1-11.35-1.55-18.92-2.51,1.25-10,1.88-15,3.14-25,7.5,1,11.25,1.44,18.75,2.48-.22,1.56-.33,2.34-.54,3.89-5.58-.77-8.36-1.15-13.94-1.87-.34,2.6-.51,3.9-.84,6.5,4.93.64,7.39,1,12.31,1.64-.21,1.53-.31,2.29-.52,3.82-4.91-.68-7.37-1-12.28-1.64-.36,2.76-.54,4.13-.89,6.89C547.63,33.73,550.49,34.11,556.2,34.91Z"/><path class="cls-1" d="M593.33,23l-1.25,7.57c4.91.81,7.36,1.22,12.26,2.07-.27,1.56-.41,2.34-.68,3.9-4.88-.85-7.33-1.26-12.22-2.06-.62,3.8-.94,5.71-1.56,9.52l-4.67-.76,4-24.88c7.47,1.2,11.21,1.83,18.67,3.13-.26,1.55-.4,2.32-.67,3.86C601.66,24.38,598.88,23.91,593.33,23Z"/><path class="cls-1" d="M631.66,51.49c-1.48-3.29-2.23-4.94-3.74-8.23-.33,0-.65-.09-1-.15L621.26,42l-1.35,7.22-4.66-.86c1.82-9.91,2.72-14.87,4.54-24.78,4.2.76,6.3,1.16,10.5,2,6.7,1.27,10.19,5.43,9.11,10.9a8.1,8.1,0,0,1-6.91,6.75c1.68,3.7,2.52,5.55,4.18,9.26Zm-2.33-22.07c-2.21-.43-3.32-.63-5.53-1.05-.73,3.95-1.1,5.93-1.84,9.88l5.49,1c4.11.78,6.6-.63,7.21-3.74S633.47,30.2,629.33,29.42Z"/><path class="cls-1" d="M649.33,42.19c1.51-7.3,8.44-11.5,16.32-9.79s12.47,8.36,10.81,15.67-8.55,11.33-16.29,9.66S647.83,49.49,649.33,42.19ZM671.76,47A9.06,9.06,0,1,0,661,53.72,8.67,8.67,0,0,0,671.76,47Z"/><path class="cls-1" d="M708.54,68.72l4.07-16.2c-4.66,4.53-7,6.8-11.57,11.35l-2.06-.5c-2-6.09-3-9.14-5-15.22-1.54,6.41-2.3,9.62-3.84,16l-4.41-1c2.32-9.81,3.47-14.72,5.79-24.53l3.87.92c2.47,7.46,3.68,11.19,6,18.66,5.5-5.53,8.27-8.28,13.85-13.76l3.86,1L712.9,69.83Z"/></g></g></svg>